<svg xmlns="http://www.w3.org/2000/svg" width="208" height="59" viewBox="0 0 208 59">
    <defs>
        <linearGradient id="a" x1="2.274%" x2="106.773%" y1="41.914%" y2="64.363%">
            <stop offset="0%" stop-color="#A6854A"/>
            <stop offset="17%" stop-color="#BC994F"/>
            <stop offset="38%" stop-color="#C9A752"/>
            <stop offset="60%" stop-color="#DDBE58"/>
            <stop offset="80%" stop-color="#E6C95C"/>
            <stop offset="100%" stop-color="#F1D55E"/>
        </linearGradient>
        <linearGradient id="b" x1="4.978%" x2="103.622%" y1="42.459%" y2="63.983%">
            <stop offset="0%" stop-color="#AE8B4D"/>
            <stop offset="20%" stop-color="#BC994F"/>
            <stop offset="48%" stop-color="#CDAD55"/>
            <stop offset="72%" stop-color="#E6C95C"/>
            <stop offset="100%" stop-color="#F1D55E"/>
        </linearGradient>
        <linearGradient id="c" x1="4893.524%" x2="4972.523%" y1="7652.907%" y2="7715.182%">
            <stop offset="0%" stop-color="#AE8B4D"/>
            <stop offset="20%" stop-color="#BC994F"/>
            <stop offset="48%" stop-color="#CDAD55"/>
            <stop offset="72%" stop-color="#E6C95C"/>
            <stop offset="100%" stop-color="#F1D55E"/>
        </linearGradient>
        <linearGradient id="d" x1="4722.515%" x2="4800.949%" y1="7272.463%" y2="7334.488%">
            <stop offset="0%" stop-color="#AE8B4D"/>
            <stop offset="20%" stop-color="#BC994F"/>
            <stop offset="48%" stop-color="#CDAD55"/>
            <stop offset="72%" stop-color="#E6C95C"/>
            <stop offset="100%" stop-color="#F1D55E"/>
        </linearGradient>
        <linearGradient id="e" x1="7009.199%" x2="7087.023%" y1="10892.223%" y2="10954.126%">
            <stop offset="0%" stop-color="#AE8B4D"/>
            <stop offset="20%" stop-color="#BC994F"/>
            <stop offset="48%" stop-color="#CDAD55"/>
            <stop offset="72%" stop-color="#E6C95C"/>
            <stop offset="100%" stop-color="#F1D55E"/>
        </linearGradient>
        <linearGradient id="f" x1="7673.89%" x2="7750.79%" y1="11847.423%" y2="11909.341%">
            <stop offset="0%" stop-color="#AE8B4D"/>
            <stop offset="20%" stop-color="#BC994F"/>
            <stop offset="48%" stop-color="#CDAD55"/>
            <stop offset="72%" stop-color="#E6C95C"/>
            <stop offset="100%" stop-color="#F1D55E"/>
        </linearGradient>
    </defs>
    <g fill="none" fill-rule="nonzero">
        <path fill="#FFF" d="M5.33 50.263h7.5v-4.338h-7.5V42.83h9.129v-4.615H0v20.09h15.087v-4.601H5.331v-3.44zm23.2-.27c0 2.271-.978 3.768-3.278 3.768s-3.344-1.555-3.344-3.768V38.214h-5.331v12.261c0 4.433 2.738 8.347 8.675 8.347 6.324 0 8.646-4.528 8.646-8.347V38.214h-5.367v11.779zm24.136-5.177c0-3.652-2.191-6.573-7.135-6.573h-9.164v20.068h5.206v-6.843h3.082l3.403 6.843h5.725l-4.308-7.712a6.368 6.368 0 0 0 3.19-5.783zm-7.646 2.468h-3.447v-4.85h3.418c1.54 0 2.41.826 2.41 2.47a2.242 2.242 0 0 1-2.381 2.38zm19.432-9.61c-6.375 0-10.413 4.68-10.413 10.523 0 5.68 3.782 10.574 10.45 10.574 6.47 0 10.45-5.112 10.45-10.574-.037-5.74-4.192-10.523-10.487-10.523zm0 16.116c-2.819 0-4.937-2.147-4.937-5.572 0-3.424 2.052-5.571 4.937-5.571 3.213 0 4.922 2.629 4.922 5.55 0 3.446-2.045 5.593-4.922 5.593zm94.45-16.116c-6.374 0-10.45 4.702-10.45 10.544 0 5.682 3.776 10.575 10.45 10.575 6.47 0 10.45-5.112 10.45-10.575 0-5.761-4.155-10.544-10.45-10.544zm0 16.116c-2.818 0-4.943-2.147-4.943-5.572 0-3.424 2.06-5.571 4.944-5.571 3.213 0 4.936 2.643 4.936 5.571 0 3.425-2.06 5.572-4.936 5.572zM92.18 38.214l-4.79 8.763-4.879-8.763H77.4l-.934 20.09h5.111l.395-11.772 3.914 6.864h2.92l3.528-6.864.482 11.771h5.39l-.936-20.089h-5.09zm8.376 20.09h5.33v-20.09h-5.33v20.09zm13.363-20.09h-5.33v20.09h14.152v-4.696h-8.822V38.214zm16.153 0h-5.33v20.09h14.152v-4.696h-8.814l-.008-15.394zm10.866 20.09h5.331v-20.09h-5.33v20.09zm42.925-8.88l-7.712-11.21h-4.849v20.09h5.273V46.772l8.032 11.53h4.528V38.214h-5.272v11.21zm13.305-6.237c0-.862.628-1.27 1.884-1.27 1.75.15 3.43.764 4.863 1.781l2.768-3.651a11.983 11.983 0 0 0-7.324-2.373c-5.616 0-7.814 3.154-7.814 6.156 0 6.265 9.566 6.134 9.566 8.763 0 1.059-1.154 1.592-2.322 1.592a7.755 7.755 0 0 1-5.178-2.191l-3.067 3.885c1.84 1.76 4.667 2.957 8.333 2.957 4.666 0 8.156-3.205 8.156-6.674-.029-6.543-9.865-6.156-9.865-8.975z"/>
        <path fill="url(#a)" d="M97.123 29.714a2.3 2.3 0 0 0-1.767.825l-7.558 10.129c-.365.489-.789.401-.95-.183L83.637 28.24a2.315 2.315 0 0 0-1.33-1.46l-11.983-4.024c-.577-.198-.628-.621-.117-.95L80.876 15a2.3 2.3 0 0 0 .912-1.701L81.956.606c0-.606.394-.789.862-.402l9.807 8.033c.55.403 1.252.54 1.913.373l12.079-3.783c.577-.183.869.139.65.73l-4.594 11.794a2.286 2.286 0 0 0 .241 1.935l7.303 10.304c.35.496.146.869-.468.84l-12.626-.716z"/>
        <path fill="url(#b)" d="M62.707 14.065a.884.884 0 0 0-.687.32l-2.92 4.032c-.14.197-.307.16-.366-.073l-1.241-4.87a.89.89 0 0 0-.512-.563l-4.63-1.621c-.218-.073-.24-.249-.043-.373l4.119-2.709a.92.92 0 0 0 .365-.68l.05-5.045c0-.241.154-.314.337-.16l3.782 3.205c.21.157.478.21.73.146l4.674-1.512c.227-.073.336.052.256.278l-1.775 4.703a.942.942 0 0 0 .088.767l2.826 4.104c.131.197.051.343-.183.328l-4.87-.277z"/>
        <path fill="url(#c)" d="M63.145 31.4a.511.511 0 0 0-.387.19l-1.68 2.345c-.08.11-.175.095-.212-.044l-.73-2.826a.548.548 0 0 0-.3-.336l-2.65-.935c-.131-.044-.146-.146 0-.219l2.366-1.577a.526.526 0 0 0 .204-.395v-2.92c0-.14.095-.183.198-.088l2.19 1.862c.122.09.278.12.424.08l2.68-.876c.131-.044.197 0 .146.16l-1.022 2.74a.562.562 0 0 0 .058.445l1.614 2.395c.08.117 0 .204-.102.197l-2.797-.197z"/>
        <path fill="url(#d)" d="M40.34 28.37c-.16 0-.311.072-.41.197l-1.738 2.425c-.08.117-.182.095-.219-.044l-.73-2.921a.504.504 0 0 0-.3-.343l-2.753-.971c-.131-.052-.146-.154 0-.227l2.417-1.657a.555.555 0 0 0 .212-.41v-3.037c0-.146.095-.19.205-.095l2.249 1.928a.526.526 0 0 0 .438.087l2.775-.905c.131-.044.197 0 .146.16l-1.008 2.856a.562.562 0 0 0 .051.46l1.68 2.468c.08.117 0 .205-.11.197l-2.906-.168z"/>
        <path fill="url(#e)" d="M51.46 22.638a.365.365 0 0 0-.27.139l-1.16 1.635c-.059.08-.125.066-.147 0l-.496-1.979a.38.38 0 0 0-.205-.233l-1.84-.658c-.087 0-.102-.102 0-.153l1.643-1.103a.358.358 0 0 0 .146-.27v-2.06c0-.094.059-.123.132-.065l1.504 1.307a.358.358 0 0 0 .3.059l1.854-.614c.088 0 .132 0 .103.11l-.73 1.913a.365.365 0 0 0 0 .314l1.182 1.658c.051.08 0 .139-.073.131l-1.942-.131z"/>
        <path fill="url(#f)" d="M28.275 21.046a.321.321 0 0 0-.24.117l-1.06 1.46c-.05.073-.11.059-.131 0l-.445-1.796a.343.343 0 0 0-.19-.212l-1.673-.592c-.08 0-.087-.094 0-.138l1.46-1a.336.336 0 0 0 .132-.249v-1.862c0-.095.052-.117.117-.066l1.366 1.183c.077.058.176.08.27.059l1.68-.563c.087 0 .124 0 .094.11l-.642 1.73a.35.35 0 0 0 0 .285l1.015 1.512c.051.073 0 .131-.066.124l-1.687-.102z"/>
    </g>
</svg>
